<svg xmlns="http://www.w3.org/2000/svg" width="64" height="64"><defs><filter id="a" width="200%" height="200%"><feGaussianBlur in="SourceAlpha" stdDeviation="3"/><feOffset dy="4" result="offsetblur"/><feComponentTransfer><feFuncA type="linear" slope=".05"/></feComponentTransfer><feMerge><feMergeNode/><feMergeNode in="SourceGraphic"/></feMerge></filter></defs><g filter="url(#a)"><g transform="translate(20 26)"><g class="am-weather-sun"><path stroke="orange" stroke-linecap="round" stroke-width="2" d="M0 9v3"/><path fill="none" stroke="orange" stroke-linecap="round" stroke-width="2" d="m-6.364 6.364-2.121 2.121M-9 0h-3M-6.364-6.364l-2.121-2.121M0-9v-3M6.364-6.364l2.121-2.121M9 0h3M6.364 6.364l2.121 2.121"/></g><circle fill="orange" r="5" stroke="orange" stroke-width="2"/></g><path d="M47.7 34.4c0-4.6-3.7-8.2-8.2-8.2-1 0-1.9.2-2.8.5-.3-3.4-3.1-6.2-6.6-6.2-3.7 0-6.7 3-6.7 6.7 0 .8.2 1.6.4 2.3-.3-.1-.7-.1-1-.1-3.7 0-6.7 3-6.7 6.7 0 3.6 2.9 6.6 6.5 6.7h17.2c4.4-.5 7.9-4 7.9-8.4z" fill="#57A0EE" stroke="#FFF" stroke-linejoin="round" stroke-width="1.2"/><g fill="none" stroke="#91C0F8" stroke-dasharray="4,7" stroke-linecap="round" stroke-width="2"><path class="am-weather-rain-1" d="m27.918 45.943-1.39 7.878"/><path class="am-weather-rain-2" d="m34.174 45.015-1.39 7.879"/></g></g></svg>