<svg xmlns="http://www.w3.org/2000/svg" xml:space="preserve" viewBox="0 0 200 200"><g fill="orange"><path d="m49.924 43.46 3.486 5.976 5.976 2.988-5.976 3.486-3.486 5.976-2.988-5.976-5.976-3.486 5.976-2.988zm99.6 49.8 3.486 5.976 5.976 2.988-5.976 3.486-3.486 5.976-2.988-5.976-5.976-3.486 5.976-2.988z"/><path stroke="orange" stroke-linejoin="round" stroke-width="9.96" d="M105.7 101.726c0-18.426 9.96-34.362 24.9-43.326-7.47-4.482-15.936-6.474-24.9-6.474-27.39 0-49.8 22.41-49.8 49.8s22.41 49.8 49.8 49.8c8.964 0 17.43-2.49 24.9-6.474-14.94-8.466-24.9-24.9-24.9-43.326z"/></g></svg>