<svg xmlns="http://www.w3.org/2000/svg" xml:space="preserve" width="500" height="500"><g stroke="#fff" stroke-linejoin="round"><path fill="#91c0f8" stroke-width="7.337" d="M182.272 191.466c0-28.125 22.622-50.135 50.135-50.135 6.114 0 11.617 1.223 17.12 3.057 1.833-20.788 18.953-37.907 40.352-37.907 22.621 0 40.963 18.342 40.963 40.964 0 4.891-1.222 9.782-2.445 14.062 1.834-.611 4.28-.611 6.114-.611 22.622 0 40.964 18.342 40.964 40.963 0 22.01-17.731 40.353-39.741 40.964H230.573c-26.902-3.057-48.3-24.456-48.3-51.357z"/><path fill="#57a0ee" stroke-width="12.228" d="M89.747 305.186c0-46.874 37.703-83.558 83.558-83.558 10.19 0 19.361 2.038 28.532 5.095 3.057-34.646 31.589-63.178 67.254-63.178 37.703 0 68.273 30.57 68.273 68.273 0 8.152-2.038 16.304-4.076 23.437 3.057-1.019 7.133-1.019 10.19-1.019 37.703 0 68.273 30.57 68.273 68.273 0 36.684-29.551 67.254-66.235 68.273H170.248c-44.836-5.095-80.501-40.76-80.501-85.596z"/></g></svg>