<svg width="32" height="32" xmlns="http://www.w3.org/2000/svg"><path fill="none" d="M-1-1h582v402H-1z"/><path stroke="null" fill="#fff" d="M8.942 17.407h13.386a6.26 6.27 0 0 0 0-12.542 5.968 5.978 0 0 0-.96.084A7.825 7.838 0 0 0 7.596 7.09a5.217 5.226 0 0 0-3.934 6.135 5.3 5.31 0 0 0 5.28 4.18z" class="cls-1"/><path fill="#57a0ee" d="M27 19h-2.91a1 1 0 0 0 0 2H27a1 1 0 0 0 0-2zM21 20a1 1 0 0 0-1-1H5a1 1 0 0 0 0 2h15a1 1 0 0 0 1-1zM25 23H13a1 1 0 0 0 0 2h12a1 1 0 0 0 0-2zM10 24a1 1 0 0 0-1-1H7a1 1 0 0 0 0 2h2a1 1 0 0 0 1-1zM23 27h-3a1 1 0 0 0 0 2h3a1 1 0 0 0 0-2zM16 27H9a1 1 0 0 0 0 2h7a1 1 0 0 0 0-2z" class="cls-2"/><path stroke="null" fill="#57a0ee" d="M9.511 16.367h12.105a5.66 5.386 0 0 0 0-10.772 5.397 5.135 0 0 0-.868.071 7.076 6.733 0 0 0-12.454 1.84 4.717 4.489 0 0 0-3.557 5.27 4.793 4.56 0 0 0 4.774 3.591z" class="cls-1"/><g transform="scale(13.5978)" filter="url(#svg_15)"><path stroke-width="1.2" stroke-linejoin="round" stroke="#FFF" fill="#57A0EE" d="M47.7 34.4c0-4.6-3.7-8.2-8.2-8.2-1 0-1.9.2-2.8.5-.3-3.4-3.1-6.2-6.6-6.2-3.7 0-6.7 3-6.7 6.7 0 .8.2 1.6.4 2.3-.3-.1-.7-.1-1-.1-3.7 0-6.7 3-6.7 6.7 0 3.6 2.9 6.6 6.5 6.7h17.2c4.4-.5 7.9-4 7.9-8.4z"/><g stroke-width="2" stroke-linecap="round" stroke-dasharray="4,7" stroke="#91C0F8" fill="none"><path class="am-weather-rain-1" d="m27.918 45.943-1.39 7.878"/><path class="am-weather-rain-2" d="m34.174 45.015-1.39 7.879"/></g></g><g transform="scale(13.5978)" filter="url(#svg_29)"><path stroke-width="1.2" stroke-linejoin="round" stroke="#FFF" fill="#57A0EE" d="M47.7 34.4c0-4.6-3.7-8.2-8.2-8.2-1 0-1.9.2-2.8.5-.3-3.4-3.1-6.2-6.6-6.2-3.7 0-6.7 3-6.7 6.7 0 .8.2 1.6.4 2.3-.3-.1-.7-.1-1-.1-3.7 0-6.7 3-6.7 6.7 0 3.6 2.9 6.6 6.5 6.7h17.2c4.4-.5 7.9-4 7.9-8.4z"/><g stroke-width="2" stroke-linecap="round" stroke-dasharray="4,7" stroke="#91C0F8" fill="none"><path class="am-weather-rain-1" d="m27.918 45.943-1.39 7.878"/><path class="am-weather-rain-2" d="m34.174 45.015-1.39 7.879"/></g></g><g transform="scale(13.5978)" filter="url(#svg_43)"><path stroke-width="1.2" stroke-linejoin="round" stroke="#FFF" fill="#57A0EE" d="M47.7 34.4c0-4.6-3.7-8.2-8.2-8.2-1 0-1.9.2-2.8.5-.3-3.4-3.1-6.2-6.6-6.2-3.7 0-6.7 3-6.7 6.7 0 .8.2 1.6.4 2.3-.3-.1-.7-.1-1-.1-3.7 0-6.7 3-6.7 6.7 0 3.6 2.9 6.6 6.5 6.7h17.2c4.4-.5 7.9-4 7.9-8.4z"/><g stroke-width="2" stroke-linecap="round" stroke-dasharray="4,7" stroke="#91C0F8" fill="none"><path class="am-weather-rain-1" d="m27.918 45.943-1.39 7.878"/><path class="am-weather-rain-2" d="m34.174 45.015-1.39 7.879"/></g></g></svg>