<svg xmlns="http://www.w3.org/2000/svg" width="64" height="64"><defs><filter id="a" width="200%" height="200%"><feGaussianBlur in="SourceAlpha" stdDeviation="3"/><feOffset dy="4" result="offsetblur"/><feComponentTransfer><feFuncA type="linear" slope=".05"/></feComponentTransfer><feMerge><feMergeNode/><feMergeNode in="SourceGraphic"/></feMerge></filter></defs><g filter="url(#a)"><path d="M38.62 25.24c0-2.76-2.22-4.92-4.92-4.92-.6 0-1.14.12-1.68.3-.18-2.04-1.86-3.72-3.96-3.72a4.02 4.02 0 0 0-4.02 4.02c0 .48.12.96.24 1.38-.18-.06-.42-.06-.6-.06a4.02 4.02 0 0 0-4.02 4.02c0 2.16 1.74 3.96 3.9 4.02h10.32c2.64-.3 4.74-2.4 4.74-5.04z" fill="#91C0F8" stroke="#fff" stroke-linejoin="round" stroke-width=".72" class="am-weather-cloud-1"/><path d="M47.7 34.4c0-4.6-3.7-8.2-8.2-8.2-1 0-1.9.2-2.8.5-.3-3.4-3.1-6.2-6.6-6.2-3.7 0-6.7 3-6.7 6.7 0 .8.2 1.6.4 2.3-.3-.1-.7-.1-1-.1-3.7 0-6.7 3-6.7 6.7 0 3.6 2.9 6.6 6.5 6.7h17.2c4.4-.5 7.9-4 7.9-8.4z" fill="#57A0EE" stroke="#FFF" stroke-linejoin="round" stroke-width="1.2"/><path class="am-weather-stroke" fill="orange" stroke="#fff" d="M28.16 34.52h7.44l-4.92 8.64h4.68L24.8 55.52l4.08-9.24h-4.56z" stroke-width="1.2"/></g></svg>